<?xml version="1.0" standalone="no"?>
<!DOCTYPE svg PUBLIC "-//W3C//DTD SVG 20010904//EN"
 "http://www.w3.org/TR/2001/REC-SVG-20010904/DTD/svg10.dtd">
<svg version="1.0" xmlns="http://www.w3.org/2000/svg"
 width="1000.000000pt" height="1000.000000pt" viewBox="0 0 1000.000000 1000.000000"
 preserveAspectRatio="xMidYMid meet">

<g transform="translate(0.000000,1000.000000) scale(0.100000,-0.100000)"
fill="#000000" stroke="none">
<path d="M4050 6790 c-630 -86 -1137 -493 -1330 -1067 -35 -105 -65 -246 -75
-350 l-8 -73 195 0 195 0 7 63 c29 263 154 523 347 722 170 176 361 283 614
346 103 26 355 36 478 20 259 -35 499 -149 686 -327 207 -197 333 -437 379
-721 l17 -103 194 0 193 0 -7 68 c-64 633 -490 1157 -1096 1350 -188 60 -274
73 -509 77 -118 2 -244 0 -280 -5z"/>
<path d="M1120 6076 c0 -392 3 -728 6 -745 l7 -31 668 0 c588 0 669 2 669 15
0 13 -56 15 -443 15 l-444 0 5 730 5 730 -237 0 -236 0 0 -714z"/>
<path d="M5840 6464 l0 -326 39 -67 c121 -207 200 -451 238 -733 l5 -38 69 0
69 0 0 39 c0 21 3 66 6 100 l7 61 37 0 c33 0 43 -7 91 -62 30 -34 70 -79 90
-100 l36 -38 243 0 242 0 -16 24 c-8 13 -38 48 -66 78 -28 29 -60 65 -71 81
-23 31 -25 29 66 46 79 15 195 82 256 149 100 109 156 246 166 403 20 325
-137 586 -402 668 -38 12 -84 26 -101 32 -17 5 -240 9 -517 9 l-487 0 0 -326z
m956 -100 c73 -35 134 -142 134 -238 0 -51 -37 -141 -72 -176 -66 -67 -82 -70
-348 -70 l-240 0 0 250 0 250 246 0 c207 0 251 -3 280 -16z"/>
<path d="M7379 6786 c-2 -2 -3 -338 -1 -745 l2 -741 210 0 210 0 2 173 3 172
245 2 c235 2 247 1 289 -20 25 -12 59 -39 75 -60 29 -36 31 -44 31 -121 0 -59
-4 -87 -15 -99 -46 -50 -59 -47 194 -47 l234 0 7 68 c17 174 -52 336 -188 436
l-37 28 63 67 c34 37 75 91 89 122 118 240 43 539 -168 675 -44 28 -106 52
-220 85 -29 9 -1016 13 -1025 5z m939 -397 c116 -57 139 -234 40 -326 -48 -46
-95 -53 -329 -53 -127 0 -220 4 -224 10 -3 5 -2 95 1 200 l7 190 230 0 c215 0
234 -1 275 -21z"/>
<path d="M4821 5759 c-39 -8 -76 -34 -105 -73 -33 -43 -29 -132 7 -180 36 -47
75 -66 132 -66 53 0 88 16 129 59 57 59 44 183 -24 231 -35 25 -96 38 -139 29z"/>
<path d="M3719 5727 c-52 -35 -79 -82 -79 -137 0 -89 73 -160 165 -160 92 0
165 71 165 160 0 89 -73 160 -165 160 -38 0 -61 -6 -86 -23z"/>
</g>
</svg>
